<svg width="32" height="32" viewBox="0 0 32 32" fill="none" xmlns="http://www.w3.org/2000/svg">
<path d="M32 6.65774C22.2369 -3.1502 7.29977 0.776362 7.29977 0.776362C7.29977 0.776362 -1.77823 12.9491 0.31277 28.6339C1.12936 34.7577 22.7303 35.1795 32 6.65774Z" fill="#3399FF"/>
<path d="M13.6917 28.2397C13.2941 28.2397 12.9674 27.9861 12.7205 27.4859C12.7385 27.2781 13.3008 20.6132 12.4897 16.8395C11.4894 12.1861 7.099 10.8334 5.22441 10.2556C4.79736 10.1239 4.4883 10.0289 4.38602 9.94606C4.36069 9.9128 3.89838 9.29883 4.07535 8.76767C4.17891 8.45621 4.4806 8.23109 4.97177 8.09806C5.0048 8.0891 5.05962 8.08463 5.134 8.08463C5.49853 8.08463 6.30229 8.18888 7.4148 8.33342C9.65328 8.62409 13.0363 9.06347 16.1132 9.06347C16.6646 9.06347 17.1914 9.04908 17.679 9.02062C19.1734 9.00367 21.3686 8.22981 23.4913 7.4812C25.1697 6.88929 26.7551 6.33032 27.9946 6.12854C28.0318 6.1311 28.6563 6.18034 28.907 6.59222C29.0632 6.84836 29.0452 7.19244 28.8541 7.61487C28.8387 7.64525 28.5791 7.79171 28.2504 7.9775C26.8561 8.76544 23.1521 10.859 20.8893 13.605C19.2994 15.5345 16.7599 22.4469 15.5393 25.769C15.1664 26.7843 14.8965 27.5192 14.8096 27.6887C14.7763 27.7222 14.255 28.2397 13.6917 28.2397Z" fill="white"/>
<path d="M27.995 6.14513C28.0453 6.14865 28.6493 6.20077 28.893 6.60081C29.0459 6.85216 29.028 7.19081 28.8398 7.60748C28.8135 7.64137 28.5612 7.784 28.2422 7.96435C26.8472 8.75293 23.1413 10.8475 20.8765 13.5953C19.2847 15.5271 16.7445 22.4411 15.524 25.7639C15.1527 26.7744 14.8837 27.507 14.7962 27.6797C14.751 27.7251 14.2406 28.2236 13.6914 28.2236C13.3015 28.2236 12.9803 27.9745 12.7366 27.4827C12.7485 27.3465 12.888 25.6875 12.9316 23.6124C12.9736 21.6221 12.9338 18.8308 12.5048 16.836C11.5029 12.1736 7.10645 10.8187 5.22897 10.2402C4.80545 10.1097 4.49863 10.0151 4.39732 9.93483C4.36269 9.8891 3.91801 9.28951 4.09018 8.77275C4.19213 8.46672 4.48997 8.24512 4.97569 8.11369C5.00743 8.10505 5.06065 8.1009 5.13375 8.1009C5.49732 8.1009 6.30076 8.20514 7.41231 8.34968C9.65111 8.64036 13.0348 9.08006 16.1126 9.08006C16.6644 9.08006 17.1915 9.06567 17.6778 9.03721C19.1757 9.02026 21.3719 8.24576 23.4959 7.49683C25.173 6.90524 26.7571 6.34691 27.995 6.14513ZM27.9934 6.11283C25.1477 6.57555 20.3251 8.97485 17.6778 9.00491C17.1703 9.03433 16.6468 9.04776 16.113 9.04776C11.5247 9.04776 6.24337 8.06892 5.13407 8.06892C5.05905 8.06892 5.00294 8.0734 4.96768 8.08299C3.26365 8.54411 4.37455 9.95753 4.37455 9.95753C4.92568 10.4107 11.2458 11.1289 12.4741 16.843C13.3031 20.6992 12.7043 27.4891 12.7043 27.4891C12.9902 28.0711 13.35 28.2556 13.6917 28.2556C14.2848 28.2556 14.8228 27.6985 14.8228 27.6985C15.1912 26.9861 18.8295 16.1302 20.9019 13.6155C23.7447 10.1651 28.7939 7.78623 28.8683 7.62187C29.5131 6.19661 27.9934 6.11283 27.9934 6.11283Z" fill="#3399FF"/>
<path d="M17.2633 7.85753C18.5261 7.85753 19.5498 6.92635 19.5498 5.77769C19.5498 4.62902 18.5261 3.69785 17.2633 3.69785C16.0004 3.69785 14.9767 4.62902 14.9767 5.77769C14.9767 6.92635 16.0004 7.85753 17.2633 7.85753Z" fill="white"/>
<path d="M17.2633 3.71385C18.5153 3.71385 19.5338 4.63961 19.5338 5.7777C19.5338 6.91579 18.5153 7.84155 17.2633 7.84155C16.0113 7.84155 14.9927 6.91579 14.9927 5.7777C14.9927 4.63961 16.0113 3.71385 17.2633 3.71385ZM17.2633 3.68187C15.9914 3.68187 14.9607 4.6201 14.9607 5.7777C14.9607 6.9353 15.9914 7.87353 17.2633 7.87353C18.5351 7.87353 19.5659 6.9353 19.5659 5.7777C19.5659 4.6201 18.5351 3.68187 17.2633 3.68187Z" fill="#3399FF"/>
</svg>
